<mxfile type="github" version="13.7.3" host="app.diagrams.net" modified="2020-09-19T10:32:51.530Z" agent="5.0 (Windows NT 10.0; Win64; x64) AppleWebKit/537.36 (KHTML, like Gecko) Chrome/70.0.3538.102 Safari/537.36 Edge/18.18363" etag="oc0-hqdFTNcAc4hMqnOH">
  <diagram id="C5RBs43oDa-KdzZeNtuy" name="Page-1">
    <mxGraphModel grid="1" shadow="0" math="0" pageHeight="1169" pageWidth="827" pageScale="1" page="1" fold="1" arrows="1" connect="1" tooltips="1" guides="1" gridSize="10" dy="746" dx="1331">
      <root>
        <mxCell id="WIyWlLk6GJQsqaUBKTNV-0" />
        <mxCell id="WIyWlLk6GJQsqaUBKTNV-1" parent="WIyWlLk6GJQsqaUBKTNV-0" />
        <mxCell id="zkfFHV4jXpPFQw0GAbJ--0" value="Shape" parent="WIyWlLk6GJQsqaUBKTNV-1" vertex="1" style="swimlane;fontStyle=2;align=center;verticalAlign=top;childLayout=stackLayout;horizontal=1;startSize=26;horizontalStack=0;resizeParent=1;resizeLast=0;collapsible=1;marginBottom=0;rounded=0;shadow=0;strokeWidth=1;">
          <mxGeometry height="40" width="160" as="geometry" y="120" x="220">
            <mxRectangle height="26" width="160" as="alternateBounds" y="140" x="230" />
          </mxGeometry>
        </mxCell>
        <mxCell id="zkfFHV4jXpPFQw0GAbJ--4" value="" parent="zkfFHV4jXpPFQw0GAbJ--0" vertex="1" style="line;html=1;strokeWidth=1;align=left;verticalAlign=middle;spacingTop=-1;spacingLeft=3;spacingRight=3;rotatable=0;labelPosition=right;points=[];portConstraint=eastwest;">
          <mxGeometry height="8" width="160" as="geometry" y="26" />
        </mxCell>
        <mxCell id="zkfFHV4jXpPFQw0GAbJ--6" value="Circle" parent="WIyWlLk6GJQsqaUBKTNV-1" vertex="1" style="swimlane;fontStyle=0;align=center;verticalAlign=top;childLayout=stackLayout;horizontal=1;startSize=26;horizontalStack=0;resizeParent=1;resizeLast=0;collapsible=1;marginBottom=0;rounded=0;shadow=0;strokeWidth=1;">
          <mxGeometry height="138" width="160" as="geometry" y="360" x="120">
            <mxRectangle height="26" width="160" as="alternateBounds" y="380" x="130" />
          </mxGeometry>
        </mxCell>
        <mxCell id="zkfFHV4jXpPFQw0GAbJ--8" value="-Radius" parent="zkfFHV4jXpPFQw0GAbJ--6" vertex="1" style="text;align=left;verticalAlign=top;spacingLeft=4;spacingRight=4;overflow=hidden;rotatable=0;points=[[0,0.5],[1,0.5]];portConstraint=eastwest;rounded=0;shadow=0;html=0;">
          <mxGeometry height="26" width="160" as="geometry" y="26" />
        </mxCell>
        <mxCell id="zkfFHV4jXpPFQw0GAbJ--9" value="" parent="zkfFHV4jXpPFQw0GAbJ--6" vertex="1" style="line;html=1;strokeWidth=1;align=left;verticalAlign=middle;spacingTop=-1;spacingLeft=3;spacingRight=3;rotatable=0;labelPosition=right;points=[];portConstraint=eastwest;">
          <mxGeometry height="8" width="160" as="geometry" y="52" />
        </mxCell>
        <mxCell id="zkfFHV4jXpPFQw0GAbJ--11" value="+getRadius ( double )&lt;br&gt;&lt;br&gt;+setRadius( double )" parent="zkfFHV4jXpPFQw0GAbJ--6" vertex="1" style="text;align=left;verticalAlign=top;spacingLeft=4;spacingRight=4;overflow=hidden;rotatable=0;points=[[0,0.5],[1,0.5]];portConstraint=eastwest;html=1;">
          <mxGeometry height="26" width="160" as="geometry" y="60" />
        </mxCell>
        <mxCell id="zkfFHV4jXpPFQw0GAbJ--13" value="Rectangle and Square" parent="WIyWlLk6GJQsqaUBKTNV-1" vertex="1" style="swimlane;fontStyle=0;align=center;verticalAlign=top;childLayout=stackLayout;horizontal=1;startSize=26;horizontalStack=0;resizeParent=1;resizeLast=0;collapsible=1;marginBottom=0;rounded=0;shadow=0;strokeWidth=1;">
          <mxGeometry height="140" width="160" as="geometry" y="360" x="330">
            <mxRectangle height="26" width="170" as="alternateBounds" y="380" x="340" />
          </mxGeometry>
        </mxCell>
        <mxCell id="zkfFHV4jXpPFQw0GAbJ--14" value="-Width : doubleÂ &#xa;-Length : double" parent="zkfFHV4jXpPFQw0GAbJ--13" vertex="1" style="text;align=left;verticalAlign=top;spacingLeft=4;spacingRight=4;overflow=hidden;rotatable=0;points=[[0,0.5],[1,0.5]];portConstraint=eastwest;">
          <mxGeometry height="34" width="160" as="geometry" y="26" />
        </mxCell>
        <mxCell id="zkfFHV4jXpPFQw0GAbJ--15" value="" parent="zkfFHV4jXpPFQw0GAbJ--13" vertex="1" style="line;html=1;strokeWidth=1;align=left;verticalAlign=middle;spacingTop=-1;spacingLeft=3;spacingRight=3;rotatable=0;labelPosition=right;points=[];portConstraint=eastwest;">
          <mxGeometry height="8" width="160" as="geometry" y="60" />
        </mxCell>
        <mxCell id="gh8xMGNrN26eVv6D6Kvf-4" value="&lt;div align=&quot;left&quot;&gt;+getWidth()&lt;br&gt;+getLength()&lt;/div&gt;&lt;div align=&quot;left&quot;&gt;+setLength( double )&lt;/div&gt;&lt;div align=&quot;left&quot;&gt;+setWidth( double )&lt;/div&gt;" parent="zkfFHV4jXpPFQw0GAbJ--13" vertex="1" style="text;html=1;strokeColor=none;fillColor=none;align=left;verticalAlign=middle;whiteSpace=wrap;rounded=0;">
          <mxGeometry height="62" width="160" as="geometry" y="68" />
        </mxCell>
        <mxCell id="gh8xMGNrN26eVv6D6Kvf-1" value="" parent="WIyWlLk6GJQsqaUBKTNV-1" style="endArrow=classic;html=1;exitX=0.5;exitY=0;exitDx=0;exitDy=0;entryX=0.75;entryY=1;entryDx=0;entryDy=0;" edge="1" target="zkfFHV4jXpPFQw0GAbJ--0" source="zkfFHV4jXpPFQw0GAbJ--13">
          <mxGeometry height="50" width="50" as="geometry" relative="1">
            <mxPoint as="sourcePoint" y="450" x="-100" />
            <mxPoint as="targetPoint" y="400" x="-50" />
            <Array as="points">
              <mxPoint y="360" x="340" />
            </Array>
          </mxGeometry>
        </mxCell>
        <mxCell id="gh8xMGNrN26eVv6D6Kvf-2" value="" parent="WIyWlLk6GJQsqaUBKTNV-1" style="endArrow=classic;html=1;exitX=0.5;exitY=0;exitDx=0;exitDy=0;entryX=0.25;entryY=1;entryDx=0;entryDy=0;" edge="1" target="zkfFHV4jXpPFQw0GAbJ--0" source="zkfFHV4jXpPFQw0GAbJ--6">
          <mxGeometry height="50" width="50" as="geometry" relative="1">
            <mxPoint as="sourcePoint" y="350" x="200" />
            <mxPoint as="targetPoint" y="310" x="250" />
            <Array as="points">
              <mxPoint y="360" x="260" />
            </Array>
          </mxGeometry>
        </mxCell>
      </root>
    </mxGraphModel>
  </diagram>
</mxfile>
